<?xml version="1.0" encoding="utf-8"?>
<!-- Generator: Adobe Illustrator 23.0.1, SVG Export Plug-In . SVG Version: 6.00 Build 0)  -->
<svg version="1.1" id="Layer_1" xmlns="http://www.w3.org/2000/svg" xmlns:xlink="http://www.w3.org/1999/xlink" x="0px" y="0px"
	 viewBox="0 0 612 792" style="enable-background:new 0 0 612 792;" xml:space="preserve">
<style type="text/css">
	.st0{fill:#FFFFFF;}
	.st1{font-family:'Arial';}
	.st2{font-size:7.5px;}
	.st3{font-family:'Arial,Bold';}
	.st4{font-size:9.173px;}
	.st5{fill:none;stroke:#000000;stroke-width:0.287;stroke-linecap:round;stroke-linejoin:round;stroke-miterlimit:10;}
	.st6{fill:#0000FF;}
	.st7{font-size:5.733px;}
	.st8{fill:#000080;}
	.st9{font-family:'GreekMathSymbolsNormal';}
	.st10{font-size:9.7001px;}
	.st11{font-family:'TimesNewRoman,Italic';}
	.st12{font-size:8.6px;}
	.st13{fill:none;stroke:#800000;stroke-width:0.287;stroke-linecap:round;stroke-linejoin:round;stroke-miterlimit:10;}
	.st14{fill:#800000;}
	.st15{font-family:'TimesNewRoman';}
	.st16{font-size:6.88px;}
	.st17{fill:none;stroke:#008000;stroke-width:0.287;stroke-linecap:round;stroke-linejoin:round;stroke-miterlimit:10;}
	.st18{fill:#008000;}
	.st19{fill:none;stroke:#000080;stroke-width:0.287;stroke-linecap:round;stroke-linejoin:round;stroke-miterlimit:10;}
	.st20{fill:none;stroke:#008080;stroke-width:0.287;stroke-linecap:round;stroke-linejoin:round;stroke-miterlimit:10;}
	.st21{fill:#008080;}
	.st22{fill:none;stroke:#FF0000;stroke-width:0.287;stroke-linecap:round;stroke-linejoin:round;stroke-miterlimit:10;}
	.st23{fill:#FF0000;}
	.st24{fill:none;stroke:#FFFF00;stroke-width:0.287;stroke-linecap:round;stroke-linejoin:round;stroke-miterlimit:10;}
	.st25{fill:#FFFF00;}
	.st26{fill-rule:evenodd;clip-rule:evenodd;fill:#FFFFFF;}
	.st27{fill:none;stroke:#000000;stroke-width:0.5741;stroke-linecap:round;stroke-miterlimit:10;}
	.st28{fill-rule:evenodd;clip-rule:evenodd;fill:#800000;}
	.st29{fill:none;stroke:#800000;stroke-width:0.287;stroke-linecap:round;stroke-miterlimit:10;}
	.st30{fill-rule:evenodd;clip-rule:evenodd;fill:#008000;}
	.st31{fill:none;stroke:#008000;stroke-width:0.287;stroke-linecap:round;stroke-miterlimit:10;}
	.st32{fill-rule:evenodd;clip-rule:evenodd;fill:#000080;}
	.st33{fill:none;stroke:#000080;stroke-width:0.287;stroke-linecap:round;stroke-miterlimit:10;}
	.st34{fill-rule:evenodd;clip-rule:evenodd;fill:#008080;}
	.st35{fill:none;stroke:#008080;stroke-width:0.287;stroke-linecap:round;stroke-miterlimit:10;}
	.st36{fill-rule:evenodd;clip-rule:evenodd;fill:#FF0000;}
	.st37{fill:none;stroke:#FF0000;stroke-width:0.287;stroke-linecap:round;stroke-miterlimit:10;}
	.st38{fill-rule:evenodd;clip-rule:evenodd;fill:#FFFF00;}
	.st39{fill:none;stroke:#FFFF00;stroke-width:0.287;stroke-linecap:round;stroke-miterlimit:10;}
	.st40{fill:none;stroke:#000000;stroke-width:1.7224;stroke-linecap:round;stroke-linejoin:round;stroke-miterlimit:10;}
	.st41{fill:none;stroke:#000000;stroke-miterlimit:10;}
	.st42{font-family:'MyriadPro-Regular';}
	.st43{font-size:8px;}
	.st44{font-family:'SymbolMT';}
	.st45{fill:none;stroke:#000000;stroke-miterlimit:10;stroke-dasharray:2.6823,2.6823;}
	.st46{fill:none;stroke:#000000;stroke-miterlimit:10;stroke-dasharray:2;}
</style>
<rect x="295.56" y="747.72" class="st0" width="21" height="8.52"/>
<text transform="matrix(1.0028 0 0 1 295.5752 754.5596)" class="st1 st2"> </text>
<text transform="matrix(1.0028 0 0 1 295.5752 754.5596)"><tspan x="0" y="0" class="st1 st2">P</tspan><tspan x="3.42" y="0" class="st1 st2">a</tspan><tspan x="6.58" y="0" class="st1 st2">g</tspan><tspan x="10.43" y="0" class="st1 st2">e</tspan><tspan x="13.73" y="0" class="st1 st2"> </tspan><tspan x="14.68" y="0" class="st1 st2">1</tspan></text>
<rect x="266.88" y="74.28" class="st0" width="76.68" height="10.56"/>
<text transform="matrix(1.0053 0 0 1 266.8755 82.6611)"><tspan x="0" y="0" class="st3 st4">B</tspan><tspan x="4.97" y="0" class="st3 st4">e</tspan><tspan x="9.43" y="0" class="st3 st4">r</tspan><tspan x="12.43" y="0" class="st3 st4">e</tspan><tspan x="16.95" y="0" class="st3 st4">a</tspan><tspan x="21.29" y="0" class="st3 st4"> </tspan><tspan x="23.23" y="0" class="st3 st4">S</tspan><tspan x="27.68" y="0" class="st3 st4">a</tspan><tspan x="32.02" y="0" class="st3 st4">nd</tspan><tspan x="42.07" y="0" class="st3 st4">s</tspan><tspan x="45.62" y="0" class="st3 st4">t</tspan><tspan x="48.59" y="0" class="st3 st4">on</tspan><tspan x="58.5" y="0" class="st3 st4">e</tspan><tspan x="63.01" y="0" class="st3 st4"> </tspan></text>
<line class="st5" x1="96.43" y1="270.65" x2="96.43" y2="110.12"/>
<line class="st5" x1="93.56" y1="270.65" x2="99.31" y2="270.65"/>
<line class="st5" x1="93.56" y1="249.43" x2="99.31" y2="249.43"/>
<rect x="85.56" y="246.24" class="st0" width="6.48" height="6.6"/>
<text transform="matrix(1.0054 0 0 1 85.561 251.6416)" class="st6 st1 st7">10</text>
<line class="st5" x1="93.56" y1="227.94" x2="99.31" y2="227.94"/>
<rect x="85.56" y="224.76" class="st0" width="6.48" height="6.6"/>
<text transform="matrix(1.0054 0 0 1 85.561 230.1602)" class="st6 st1 st7">20</text>
<line class="st5" x1="93.56" y1="206.44" x2="99.31" y2="206.44"/>
<rect x="85.56" y="203.28" class="st0" width="6.48" height="6.6"/>
<text transform="matrix(1.0054 0 0 1 85.561 208.6787)" class="st6 st1 st7">30</text>
<line class="st5" x1="93.56" y1="185.23" x2="99.31" y2="185.23"/>
<rect x="85.56" y="182.04" class="st0" width="6.48" height="6.6"/>
<text transform="matrix(1.0054 0 0 1 85.561 187.438)" class="st6 st1 st7">40</text>
<line class="st5" x1="93.56" y1="163.73" x2="99.31" y2="163.73"/>
<rect x="85.56" y="160.56" class="st0" width="6.48" height="6.6"/>
<text transform="matrix(1.0054 0 0 1 85.561 165.9619)" class="st6 st1 st7">50</text>
<line class="st5" x1="93.56" y1="142.23" x2="99.31" y2="142.23"/>
<rect x="85.56" y="139.08" class="st0" width="6.48" height="6.6"/>
<text transform="matrix(1.0054 0 0 1 85.561 144.4805)" class="st6 st1 st7">60</text>
<line class="st5" x1="93.56" y1="120.73" x2="99.31" y2="120.73"/>
<rect x="85.56" y="117.6" class="st0" width="6.48" height="6.6"/>
<text transform="matrix(1.0054 0 0 1 85.561 122.999)" class="st6 st1 st7">70</text>
<rect x="100.8" y="110.16" class="st0" width="5.52" height="11.88"/>
<text transform="matrix(0.9507 0 -0.3252 0.9457 100.8032 119.3899)" class="st8 st9 st10"></text>
<line class="st5" x1="96.43" y1="270.65" x2="526.78" y2="270.65"/>
<line class="st5" x1="96.43" y1="267.78" x2="96.43" y2="273.52"/>
<line class="st5" x1="117.7" y1="267.78" x2="117.7" y2="273.52"/>
<rect x="114.6" y="274.92" class="st0" width="6.48" height="6.6"/>
<text transform="matrix(1.0054 0 0 1 114.6055 280.3184)" class="st6 st1 st7">10</text>
<line class="st5" x1="139.27" y1="267.78" x2="139.27" y2="273.52"/>
<rect x="136.08" y="274.92" class="st0" width="6.48" height="6.6"/>
<text transform="matrix(1.0054 0 0 1 136.082 280.3184)" class="st6 st1 st7">20</text>
<line class="st5" x1="160.83" y1="267.78" x2="160.83" y2="273.52"/>
<rect x="157.68" y="274.92" class="st0" width="6.48" height="6.6"/>
<text transform="matrix(1.0054 0 0 1 157.6855 280.3184)" class="st6 st1 st7">30</text>
<line class="st5" x1="182.38" y1="267.78" x2="182.38" y2="273.52"/>
<rect x="179.28" y="274.92" class="st0" width="6.48" height="6.6"/>
<text transform="matrix(1.0054 0 0 1 179.2832 280.3184)" class="st6 st1 st7">40</text>
<line class="st5" x1="203.95" y1="267.78" x2="203.95" y2="273.52"/>
<rect x="200.76" y="274.92" class="st0" width="6.48" height="6.6"/>
<text transform="matrix(1.0054 0 0 1 200.7661 280.3184)" class="st6 st1 st7">50</text>
<line class="st5" x1="225.51" y1="267.78" x2="225.51" y2="273.52"/>
<rect x="222.36" y="274.92" class="st0" width="6.48" height="6.6"/>
<text transform="matrix(1.0054 0 0 1 222.3691 280.3184)" class="st6 st1 st7">60</text>
<line class="st5" x1="246.78" y1="267.78" x2="246.78" y2="273.52"/>
<rect x="243.6" y="274.92" class="st0" width="6.48" height="6.6"/>
<text transform="matrix(1.0054 0 0 1 243.6099 280.3184)" class="st6 st1 st7">70</text>
<line class="st5" x1="268.34" y1="267.78" x2="268.34" y2="273.52"/>
<rect x="265.2" y="274.92" class="st0" width="6.48" height="6.6"/>
<text transform="matrix(1.0054 0 0 1 265.2075 280.3184)" class="st6 st1 st7">80</text>
<line class="st5" x1="289.9" y1="267.78" x2="289.9" y2="273.52"/>
<rect x="286.8" y="274.92" class="st0" width="6.48" height="6.6"/>
<text transform="matrix(1.0054 0 0 1 286.811 280.3184)" class="st6 st1 st7">90</text>
<line class="st5" x1="311.46" y1="267.78" x2="311.46" y2="273.52"/>
<rect x="306.6" y="274.92" class="st0" width="9.72" height="6.6"/>
<text transform="matrix(1.0054 0 0 1 306.6104 280.3184)"><tspan x="0" y="0" class="st6 st1 st7">1</tspan><tspan x="2.94" y="0" class="st6 st1 st7">0</tspan><tspan x="5.95" y="0" class="st6 st1 st7">0</tspan></text>
<line class="st5" x1="333.02" y1="267.78" x2="333.02" y2="273.52"/>
<rect x="328.08" y="274.92" class="st0" width="9.72" height="6.6"/>
<text transform="matrix(1.0054 0 0 1 328.0928 280.3184)"><tspan x="0" y="0" class="st6 st1 st7">1</tspan><tspan x="2.94" y="0" class="st6 st1 st7">1</tspan><tspan x="5.95" y="0" class="st6 st1 st7">0</tspan></text>
<line class="st5" x1="354.58" y1="267.78" x2="354.58" y2="273.52"/>
<rect x="349.68" y="274.92" class="st0" width="9.72" height="6.6"/>
<text transform="matrix(1.0054 0 0 1 349.6904 280.3184)"><tspan x="0" y="0" class="st6 st1 st7">1</tspan><tspan x="2.94" y="0" class="st6 st1 st7">2</tspan><tspan x="5.95" y="0" class="st6 st1 st7">0</tspan></text>
<line class="st5" x1="376.14" y1="267.78" x2="376.14" y2="273.52"/>
<rect x="371.28" y="274.92" class="st0" width="9.72" height="6.6"/>
<text transform="matrix(1.0054 0 0 1 371.2939 280.3184)"><tspan x="0" y="0" class="st6 st1 st7">1</tspan><tspan x="2.94" y="0" class="st6 st1 st7">3</tspan><tspan x="5.95" y="0" class="st6 st1 st7">0</tspan></text>
<line class="st5" x1="397.42" y1="267.78" x2="397.42" y2="273.52"/>
<rect x="392.52" y="274.92" class="st0" width="9.72" height="6.6"/>
<text transform="matrix(1.0054 0 0 1 392.5342 280.3184)"><tspan x="0" y="0" class="st6 st1 st7">1</tspan><tspan x="2.94" y="0" class="st6 st1 st7">4</tspan><tspan x="5.95" y="0" class="st6 st1 st7">0</tspan></text>
<line class="st5" x1="418.97" y1="267.78" x2="418.97" y2="273.52"/>
<rect x="414.12" y="274.92" class="st0" width="9.72" height="6.6"/>
<text transform="matrix(1.0054 0 0 1 414.1318 280.3184)"><tspan x="0" y="0" class="st6 st1 st7">1</tspan><tspan x="2.94" y="0" class="st6 st1 st7">5</tspan><tspan x="5.95" y="0" class="st6 st1 st7">0</tspan></text>
<line class="st5" x1="440.53" y1="267.78" x2="440.53" y2="273.52"/>
<rect x="435.6" y="274.92" class="st0" width="9.72" height="6.6"/>
<text transform="matrix(1.0054 0 0 1 435.6143 280.3184)"><tspan x="0" y="0" class="st6 st1 st7">1</tspan><tspan x="2.94" y="0" class="st6 st1 st7">6</tspan><tspan x="5.95" y="0" class="st6 st1 st7">0</tspan></text>
<line class="st5" x1="462.1" y1="267.78" x2="462.1" y2="273.52"/>
<rect x="457.2" y="274.92" class="st0" width="9.72" height="6.6"/>
<text transform="matrix(1.0054 0 0 1 457.2178 280.3184)"><tspan x="0" y="0" class="st6 st1 st7">1</tspan><tspan x="2.94" y="0" class="st6 st1 st7">7</tspan><tspan x="5.95" y="0" class="st6 st1 st7">0</tspan></text>
<line class="st5" x1="483.65" y1="267.78" x2="483.65" y2="273.52"/>
<rect x="478.8" y="274.92" class="st0" width="9.72" height="6.6"/>
<text transform="matrix(1.0054 0 0 1 478.8154 280.3184)"><tspan x="0" y="0" class="st6 st1 st7">1</tspan><tspan x="2.94" y="0" class="st6 st1 st7">8</tspan><tspan x="5.95" y="0" class="st6 st1 st7">0</tspan></text>
<line class="st5" x1="505.21" y1="267.78" x2="505.21" y2="273.52"/>
<rect x="500.28" y="274.92" class="st0" width="9.72" height="6.6"/>
<text transform="matrix(1.0054 0 0 1 500.2979 280.3184)"><tspan x="0" y="0" class="st6 st1 st7">1</tspan><tspan x="2.94" y="0" class="st6 st1 st7">9</tspan><tspan x="5.95" y="0" class="st6 st1 st7">0</tspan></text>
<line class="st5" x1="526.49" y1="267.78" x2="526.49" y2="273.52"/>
<rect x="521.64" y="274.92" class="st0" width="9.72" height="6.6"/>
<text transform="matrix(1.0054 0 0 1 521.6592 280.3184)"><tspan x="0" y="0" class="st6 st1 st7">2</tspan><tspan x="2.94" y="0" class="st6 st1 st7">0</tspan><tspan x="5.95" y="0" class="st6 st1 st7">0</tspan></text>
<rect x="500.88" y="284.16" class="st0" width="24.48" height="9.72"/>
<text transform="matrix(1.0053 0 0 1 500.8975 291.8066)"><tspan x="0" y="0" class="st8 st11 st12"> </tspan><tspan x="1.82" y="0" class="st8 st11 st12">(</tspan><tspan x="4.15" y="0" class="st8 st11 st12">MPa)</tspan></text>
<rect x="492.84" y="279.24" class="st0" width="8.04" height="11.88"/>
<text transform="matrix(0.9507 0 -0.3252 0.9457 492.8409 288.4657)"><tspan x="0" y="0" class="st8 st9 st10"></tspan><tspan x="5.94" y="0" class="st8 st9 st10"> </tspan></text>
<path class="st13" d="M288.46,270.65c0.01,1.37,0.01,1.28,0.01-0.29c0-52.72-42.98-95.46-96.01-95.46
	c-53.03,0-96.01,42.74-96.01,95.45c0,1.57,0,1.66,0.01,0.29"/>
<rect x="260.28" y="203.04" class="st0" width="18.12" height="7.8"/>
<text transform="matrix(1.0054 0 0 1 260.2935 209.1265)"><tspan x="0" y="0" class="st14 st15 st16">0 M</tspan><tspan x="10.52" y="0" class="st14 st15 st16">P</tspan><tspan x="14.12" y="0" class="st14 st15 st16">a</tspan></text>
<path class="st17" d="M349.4,270.65c0.01,1.6,0.01,1.46,0.01-0.43c0-63.55-51.86-115.09-115.85-115.09S117.7,206.66,117.7,270.22
	c0,1.88,0,2.02,0.01,0.43"/>
<rect x="315.24" y="189.24" class="st0" width="21.6" height="7.8"/>
<text transform="matrix(1.0054 0 0 1 315.2627 195.3252)" class="st18 st15 st16">10 MPa</text>
<path class="st19" d="M394.24,270.65c0.01,1.88,0.01,1.79,0.01-0.28c0-69.97-57.08-126.7-127.49-126.7
	c-70.42,0-127.49,56.73-127.49,126.7c0,2.07,0,2.17,0.01,0.28"/>
<rect x="356.64" y="180.96" class="st0" width="21.6" height="7.8"/>
<text transform="matrix(1.0054 0 0 1 356.6611 187.0415)" class="st8 st15 st16">20 MPa</text>
<path class="st20" d="M443.41,270.65c0.01,2.11,0.01,2.02,0.01-0.28c-0.01-77.57-63.26-140.46-141.3-140.46
	c-78.03,0-141.29,62.89-141.29,140.46c0,2.3,0,2.39,0.01,0.28"/>
<rect x="401.76" y="171.24" class="st0" width="21.6" height="7.8"/>
<text transform="matrix(1.0054 0 0 1 401.7881 177.3271)" class="st21 st15 st16">30 MPa</text>
<rect x="311.52" y="113.88" class="st0" width="7.56" height="6"/>
<rect x="318.96" y="113.88" class="st0" width="11.04" height="5.28"/>
<path class="st22" d="M485.09,270.65c0.01,2.27,0.01,2.17,0.01-0.29c-0.01-83.11-67.77-150.49-151.36-150.49
	c-83.59,0-151.35,67.38-151.35,150.49c0,2.47,0,2.57,0.01,0.29"/>
<rect x="440.28" y="164.28" class="st0" width="21.6" height="7.8"/>
<text transform="matrix(1.0054 0 0 1 440.3086 170.3643)" class="st23 st15 st16">40 MPa</text>
<path class="st24" d="M525.91,270.65c0.01,2.33,0.01,2.19,0.01-0.43c-0.01-88.42-72.08-160.1-161-160.1
	c-88.9,0-160.98,71.68-160.98,160.1c0,2.62,0,2.76,0.01,0.43"/>
<rect x="478.44" y="157.44" class="st0" width="21.6" height="7.8"/>
<text transform="matrix(1.0054 0 0 1 478.4697 163.5259)" class="st25 st15 st16">50 MPa</text>
<rect x="487.96" y="83.47" class="st26" width="36.22" height="50.16"/>
<rect x="487.96" y="83.47" class="st27" width="36.22" height="50.16"/>
<rect x="490.84" y="88.34" class="st28" width="3.45" height="3.15"/>
<rect x="490.84" y="88.34" class="st29" width="3.45" height="3.15"/>
<rect x="498.6" y="86.28" class="st0" width="16.56" height="6.6"/>
<text transform="matrix(1.0054 0 0 1 498.6152 91.6797)"><tspan x="0" y="0" class="st1 st7">0 </tspan><tspan x="4.16" y="0" class="st1 st7">M</tspan><tspan x="8.64" y="0" class="st1 st7">Pa</tspan></text>
<rect x="490.84" y="95.79" class="st30" width="3.45" height="3.16"/>
<rect x="490.84" y="95.79" class="st31" width="3.45" height="3.16"/>
<rect x="498.6" y="93.84" class="st0" width="19.8" height="6.6"/>
<text transform="matrix(1.0054 0 0 1 498.6152 99.2417)"><tspan x="0" y="0" class="st1 st7">1</tspan><tspan x="2.94" y="0" class="st1 st7">0</tspan><tspan x="5.95" y="0" class="st1 st7"> </tspan><tspan x="7.17" y="0" class="st1 st7">M</tspan><tspan x="11.61" y="0" class="st1 st7">Pa</tspan></text>
<rect x="490.84" y="103.25" class="st32" width="3.45" height="3.15"/>
<rect x="490.84" y="103.25" class="st33" width="3.45" height="3.15"/>
<rect x="498.6" y="101.28" class="st0" width="19.8" height="6.6"/>
<text transform="matrix(1.0054 0 0 1 498.6152 106.6772)"><tspan x="0" y="0" class="st1 st7">2</tspan><tspan x="2.94" y="0" class="st1 st7">0</tspan><tspan x="5.95" y="0" class="st1 st7"> </tspan><tspan x="7.17" y="0" class="st1 st7">M</tspan><tspan x="11.61" y="0" class="st1 st7">Pa</tspan></text>
<rect x="490.84" y="110.7" class="st34" width="3.45" height="3.15"/>
<rect x="490.84" y="110.7" class="st35" width="3.45" height="3.15"/>
<rect x="498.6" y="108.72" class="st0" width="19.8" height="6.6"/>
<text transform="matrix(1.0054 0 0 1 498.6152 114.1187)"><tspan x="0" y="0" class="st1 st7">3</tspan><tspan x="2.94" y="0" class="st1 st7">0</tspan><tspan x="5.95" y="0" class="st1 st7"> </tspan><tspan x="7.17" y="0" class="st1 st7">M</tspan><tspan x="11.61" y="0" class="st1 st7">Pa</tspan></text>
<rect x="490.84" y="118.15" class="st36" width="3.45" height="3.16"/>
<rect x="490.84" y="118.15" class="st37" width="3.45" height="3.16"/>
<rect x="498.6" y="116.16" class="st0" width="19.8" height="6.6"/>
<text transform="matrix(1.0054 0 0 1 498.6152 121.5601)"><tspan x="0" y="0" class="st1 st7">4</tspan><tspan x="2.94" y="0" class="st1 st7">0</tspan><tspan x="5.95" y="0" class="st1 st7"> </tspan><tspan x="7.17" y="0" class="st1 st7">M</tspan><tspan x="11.61" y="0" class="st1 st7">Pa</tspan></text>
<rect x="490.84" y="125.6" class="st38" width="3.45" height="3.16"/>
<rect x="490.84" y="125.6" class="st39" width="3.45" height="3.16"/>
<rect x="498.6" y="123.6" class="st0" width="19.8" height="6.6"/>
<text transform="matrix(1.0054 0 0 1 498.6152 129.0015)"><tspan x="0" y="0" class="st1 st7">5</tspan><tspan x="2.94" y="0" class="st1 st7">0</tspan><tspan x="5.95" y="0" class="st1 st7"> </tspan><tspan x="7.17" y="0" class="st1 st7">M</tspan><tspan x="11.61" y="0" class="st1 st7">Pa</tspan></text>
<line class="st40" x1="72" y1="72" x2="72" y2="299.6"/>
<line class="st40" x1="72" y1="299.6" x2="538.27" y2="299.6"/>
<line class="st40" x1="538.27" y1="299.6" x2="538.27" y2="72"/>
<line class="st40" x1="538.27" y1="72" x2="72" y2="72"/>
<text transform="matrix(1.0053 0 0 1 107.826 119.3899)"><tspan x="0" y="0" class="st8 st11 st12"> </tspan><tspan x="1.82" y="0" class="st8 st11 st12">(</tspan><tspan x="4.15" y="0" class="st8 st11 st12">MPa)</tspan></text>
<line class="st41" x1="96.44" y1="210.84" x2="336.84" y2="101.28"/>
<text transform="matrix(1 0 0 1 103.56 179.9644)" class="st42 st43">C = 28.03 MPa</text>
<text transform="matrix(1 0 0 1 339.7386 106.6775)"><tspan x="0" y="0" class="st44 st43">f</tspan><tspan x="4.17" y="0" class="st42 st43"> = 23.74 MPa</tspan></text>
<g>
	<g>
		<line class="st41" x1="320.89" y1="108.55" x2="322.89" y2="108.55"/>
		<line class="st45" x1="325.58" y1="108.55" x2="329.6" y2="108.55"/>
		<line class="st41" x1="330.94" y1="108.55" x2="332.94" y2="108.55"/>
	</g>
</g>
<path class="st46" d="M336.84,101.28c0,4.02-1.74,7.27-3.9,7.27"/>
</svg>
